<?xml version="1.0" standalone="no"?>
<!DOCTYPE svg PUBLIC "-//W3C//DTD SVG 20010904//EN"
 "http://www.w3.org/TR/2001/REC-SVG-20010904/DTD/svg10.dtd">
<svg version="1.0" xmlns="http://www.w3.org/2000/svg"
 width="1021.000000pt" height="1280.000000pt" viewBox="0 0 1021.000000 1280.000000"
 preserveAspectRatio="xMidYMid meet">
<metadata>
Created by potrace 1.15, written by Peter Selinger 2001-2017
</metadata>
<g transform="translate(0.000000,1280.000000) scale(0.100000,-0.100000)"
fill="#ffc107" stroke="none">
<path d="M1990 12785 c-140 -24 -200 -54 -293 -144 -84 -80 -128 -152 -163
-262 -18 -55 -42 -104 -70 -142 -82 -111 -72 -202 37 -328 27 -31 49 -59 49
-63 0 -3 -10 -6 -23 -6 -27 0 -64 -32 -78 -67 -20 -53 -11 -97 37 -171 25 -40
54 -93 63 -119 22 -61 61 -91 99 -77 l29 11 23 -126 c12 -69 25 -153 28 -187
4 -56 3 -61 -17 -67 -14 -3 -31 -26 -50 -69 -43 -96 -96 -155 -156 -174 -70
-23 -119 -49 -159 -84 -28 -25 -62 -37 -193 -69 -270 -67 -373 -111 -466 -199
-101 -97 -164 -216 -510 -965 l-175 -377 56 -56 c32 -31 94 -79 140 -107 76
-46 82 -53 77 -77 -3 -14 -6 -154 -7 -311 0 -301 16 -498 48 -575 41 -97 179
-264 431 -520 87 -89 199 -199 249 -245 l92 -84 -20 -75 c-32 -125 -67 -372
-88 -620 -11 -129 -33 -314 -48 -410 l-27 -175 3 -635 c3 -593 -4 -884 -28
-1290 -38 -616 -93 -1259 -160 -1875 -17 -148 -30 -296 -30 -327 l0 -57 70
-22 c39 -11 70 -25 70 -31 0 -25 -166 -532 -195 -595 -18 -39 -71 -127 -118
-195 -138 -200 -176 -292 -180 -434 -1 -62 2 -86 16 -107 50 -76 272 -121 405
-82 28 9 70 30 94 48 63 48 179 187 263 313 69 104 77 113 142 147 133 70 139
91 98 368 -15 101 -28 225 -29 274 l-1 90 80 -3 c75 -3 84 -1 150 32 97 49
205 134 238 188 46 74 51 141 38 503 -22 613 -12 1143 25 1352 8 48 19 140 25
203 17 204 42 271 327 855 169 348 269 568 322 713 12 34 25 61 27 58 3 -2 0
-71 -6 -153 -32 -458 -21 -704 56 -1258 51 -365 34 -645 -72 -1170 -55 -274
-165 -881 -165 -912 0 -11 100 -58 200 -93 36 -13 69 -26 73 -30 13 -11 -11
-193 -43 -331 -40 -167 -40 -233 -1 -286 40 -55 99 -81 238 -104 152 -25 183
-36 333 -117 153 -83 273 -135 376 -164 109 -29 360 -32 448 -5 70 22 126 71
126 111 0 61 -93 187 -207 281 -36 30 -115 80 -175 111 -127 66 -165 104 -262
259 -95 151 -138 236 -132 260 2 11 14 45 25 75 31 87 41 223 51 725 10 483
14 529 60 718 27 114 40 266 40 497 0 232 10 315 65 565 24 110 54 266 67 348
12 81 25 147 28 147 3 0 25 -31 50 -67 86 -127 338 -458 432 -568 125 -145
267 -288 404 -408 l112 -97 100 -227 c56 -126 120 -273 143 -328 l42 -100 -6
-485 c-6 -496 -1 -620 29 -717 43 -136 212 -238 335 -202 58 17 149 109 253
254 93 130 338 446 342 442 2 -2 13 -66 24 -143 40 -277 68 -328 235 -428 108
-65 132 -51 234 140 98 182 157 279 173 282 8 2 110 -44 226 -102 l211 -105
278 -7 278 -7 90 -91 c50 -50 125 -134 168 -187 l77 -96 -7 -95 c-24 -372 234
-967 530 -1218 295 -251 603 -308 997 -185 303 96 496 265 649 571 96 192 126
324 125 544 0 174 -17 296 -70 502 -88 350 -254 624 -484 801 l-35 27 1 352 2
353 47 155 c63 210 95 346 95 402 0 95 -34 110 -457 203 -593 131 -899 216
-1338 373 -446 159 -812 324 -1180 533 -299 169 -282 163 -463 161 l-155 -2
-81 69 c-131 111 -222 212 -405 449 -352 455 -569 616 -995 736 -67 19 -165
44 -219 56 l-98 22 6 28 c11 51 -15 150 -76 285 -76 170 -83 209 -75 420 8
204 -3 349 -50 675 -34 240 -34 250 -33 550 1 168 -1 359 -6 425 l-7 120 63
47 c35 26 84 65 108 87 l45 38 -71 109 c-134 206 -250 399 -373 619 -67 121
-148 258 -178 304 -74 110 -186 228 -267 281 -65 42 -233 120 -259 120 -8 0
-28 12 -45 26 -24 20 -49 28 -106 35 -41 5 -85 13 -98 18 -12 4 -27 6 -33 4
-5 -2 -49 46 -97 106 -88 110 -162 184 -249 250 -27 19 -48 41 -48 48 0 26 42
138 75 200 18 34 39 84 45 111 12 45 15 48 41 44 21 -3 31 2 44 22 28 42 87
227 89 277 1 59 -15 79 -65 79 l-39 0 1 48 c1 26 4 37 6 25 6 -31 36 -29 61 2
34 43 46 118 33 196 -11 59 -10 74 5 123 17 55 17 57 -5 114 -88 225 -126 286
-266 428 -87 89 -148 125 -247 149 -76 18 -206 18 -308 0z m367 -1346 c42 -11
50 -22 35 -46 -6 -10 -24 -10 -77 -1 -39 6 -120 8 -184 5 -62 -3 -110 -2 -105
3 11 9 119 47 154 54 33 6 123 -2 177 -15z m-2245 -2161 c-7 -7 -12 -8 -12 -2
0 14 12 26 19 19 2 -3 -1 -11 -7 -17z m944 -735 c10 -144 1 -185 -47 -232 -37
-37 -39 -43 -39 -100 0 -64 -10 -76 -33 -38 -12 19 -12 41 -1 147 7 69 13 151
13 183 1 54 4 60 41 96 22 21 40 46 40 57 1 16 2 17 10 3 5 -8 12 -60 16 -116z
m2514 -477 c17 -65 41 -205 55 -310 37 -290 54 -347 189 -640 46 -99 87 -195
90 -212 6 -29 -1 -59 -73 -304 -6 -18 -11 0 -20 70 -17 132 -43 260 -92 435
-50 185 -158 507 -173 517 -6 4 -10 31 -9 60 1 29 -3 58 -8 65 -6 7 -7 96 -3
235 4 122 9 219 10 213 2 -5 17 -64 34 -129z m863 -2011 c375 -184 463 -254
598 -476 228 -373 240 -390 373 -545 l35 -40 -217 -13 c-119 -8 -262 -17 -317
-20 l-100 -7 -85 55 c-207 133 -333 235 -540 436 -80 77 -199 192 -266 255
l-121 115 13 115 c7 63 13 122 14 129 0 8 13 -5 29 -30 16 -27 42 -51 60 -59
69 -28 177 14 282 111 35 32 65 58 67 59 2 0 81 -38 175 -85z"/>
</g>
</svg>
