<?xml version="1.0" standalone="no"?>
<!DOCTYPE svg PUBLIC "-//W3C//DTD SVG 20010904//EN"
 "http://www.w3.org/TR/2001/REC-SVG-20010904/DTD/svg10.dtd">
<svg version="1.0" xmlns="http://www.w3.org/2000/svg"
 width="1280.000000pt" height="1280.000000pt" viewBox="0 0 1280.000000 1280.000000"
 preserveAspectRatio="xMidYMid meet">
<metadata>
Created by potrace 1.15, written by Peter Selinger 2001-2017
</metadata>
<g transform="translate(0.000000,1280.000000) scale(0.100000,-0.100000)"
fill="black" stroke="none">
<path d="M5433 12201 c-226 -125 -258 -151 -312 -254 l-45 -84 -96 -11 c-91
-9 -100 -13 -190 -67 -88 -53 -101 -66 -180 -168 -71 -94 -85 -119 -91 -162
-14 -98 -9 -175 17 -275 l27 -98 79 -79 c78 -78 79 -78 201 -119 104 -35 122
-44 125 -63 2 -13 -3 -30 -11 -39 -7 -9 -35 -51 -61 -93 l-46 -76 -73 -7
c-129 -12 -388 -108 -506 -188 -159 -108 -226 -171 -346 -327 -66 -85 -186
-239 -266 -341 -270 -344 -546 -733 -596 -838 l-45 -97 6 -215 c4 -118 9 -252
12 -298 l6 -83 37 6 36 6 29 -83 c15 -46 111 -261 212 -479 101 -218 184 -399
184 -402 0 -4 -7 -7 -15 -7 -12 0 -12 -5 -4 -24 13 -28 0 -57 -77 -168 -75
-106 -94 -151 -94 -224 0 -68 32 -193 82 -313 37 -92 71 -139 104 -147 19 -5
42 -36 96 -127 l71 -120 -11 -283 -11 -283 -163 -307 -164 -306 -272 -160
-272 -160 -217 -235 c-194 -211 -215 -237 -204 -255 11 -17 2 -30 -72 -111
-47 -51 -200 -234 -341 -407 l-256 -315 -148 -115 c-81 -64 -161 -129 -177
-145 -17 -17 -63 -56 -103 -88 -51 -41 -72 -64 -72 -80 1 -42 183 -231 306
-317 34 -24 48 -28 78 -23 24 4 43 0 60 -11 58 -37 162 -146 240 -250 112
-149 152 -178 289 -210 119 -28 190 -26 336 10 l73 19 -6 52 c-5 41 -2 59 13
85 10 18 22 53 25 78 6 41 4 48 -21 72 -15 14 -46 31 -68 37 -22 6 -81 24
-130 41 -50 16 -100 30 -112 30 -21 0 -22 2 -17 88 5 72 14 110 57 222 28 74
68 162 89 196 21 33 91 112 155 175 65 62 174 170 243 238 l125 125 139 28
c76 15 139 29 141 30 1 2 12 39 24 83 23 78 69 173 94 193 6 5 57 15 112 22
97 12 101 13 157 60 32 27 188 181 346 342 260 265 291 299 316 358 28 64 132
267 167 325 l18 29 64 -134 64 -135 100 -88 100 -88 33 -97 c40 -118 52 -143
101 -207 34 -45 39 -59 47 -135 9 -84 9 -86 -24 -158 -18 -40 -47 -93 -64
-118 l-30 -45 23 -122 23 -122 -68 -148 c-68 -147 -75 -167 -60 -167 5 0 16
-6 25 -13 16 -11 16 -22 2 -147 -8 -74 -25 -199 -37 -277 -21 -141 -21 -145
-4 -283 9 -77 22 -206 27 -285 l11 -145 -31 -55 c-27 -48 -32 -68 -40 -177 -6
-68 -17 -157 -25 -198 l-16 -75 34 -30 c40 -36 213 -90 321 -100 39 -4 127
-20 196 -35 70 -16 149 -31 175 -35 27 -4 76 -15 109 -26 121 -38 200 -49 258
-38 38 8 77 8 128 1 53 -7 108 -6 194 3 168 18 182 22 257 74 l67 45 -21 37
c-15 28 -18 41 -10 56 7 13 7 34 0 66 -12 60 -56 92 -140 102 -32 3 -114 25
-182 48 l-124 42 -127 115 c-155 140 -176 177 -200 354 -28 216 -29 314 -2
546 13 118 22 238 19 267 -4 48 -2 52 25 65 25 12 39 41 126 273 85 224 104
286 138 448 21 103 39 189 39 191 0 11 208 -78 230 -98 14 -13 180 -86 370
-164 190 -77 366 -150 393 -161 l47 -20 -113 -228 c-100 -198 -133 -279 -256
-623 -82 -228 -167 -446 -201 -515 -33 -66 -65 -141 -71 -166 -25 -93 19 -133
171 -152 l86 -10 434 223 c476 244 747 388 972 516 147 83 440 260 490 295 14
11 32 19 40 19 13 0 415 -164 425 -173 2 -3 -10 -33 -27 -66 -76 -151 -120
-346 -120 -532 0 -459 262 -878 678 -1084 606 -300 1344 -39 1631 576 22 46
48 112 58 146 20 69 17 68 130 79 l72 6 5 37 c3 20 8 74 11 121 l7 85 -89 104
c-89 104 -89 104 -107 191 -23 115 -89 276 -156 385 -67 106 -208 259 -310
335 -136 100 -321 182 -475 210 -101 18 -105 20 -70 34 31 13 939 418 942 420
6 4 32 761 26 767 -5 3 -530 185 -1168 404 -638 218 -1482 507 -1877 642
l-716 245 -534 -225 c-493 -208 -534 -224 -549 -208 -30 30 -779 1079 -779
1091 0 24 116 444 282 1027 l172 602 -20 533 c-12 293 -19 600 -17 682 4 133
2 158 -21 250 -14 55 -33 170 -42 254 l-18 153 -50 47 c-28 26 -64 58 -80 70
l-30 23 31 88 c17 52 77 174 144 295 l114 206 51 0 c95 0 164 38 299 165 l120
113 48 119 48 119 -7 123 -7 123 -60 71 c-48 59 -77 82 -156 127 -53 30 -152
76 -220 101 l-124 47 -29 93 c-15 51 -32 97 -36 103 -78 103 -108 132 -160
153 -32 13 -86 25 -131 28 l-76 5 -162 -89z m449 -6401 c190 -305 352 -568
361 -585 41 -83 557 -1288 553 -1292 -8 -9 -797 325 -818 345 -3 4 2 58 12
120 42 253 46 303 25 389 -13 51 -37 109 -71 168 -28 50 -90 162 -136 250
-203 382 -402 701 -448 717 -9 3 -60 244 -60 279 0 15 7 15 77 -2 59 -13 80
-15 85 -6 4 7 17 54 30 105 17 71 25 89 34 80 6 -7 167 -263 356 -568z m1387
-2286 c2 -2 -21 -64 -52 -136 -52 -122 -279 -730 -274 -734 1 -1 63 -15 137
-31 l135 -29 517 258 c285 142 526 258 535 257 10 0 49 -13 87 -28 l70 -28
-42 -26 c-463 -293 -796 -476 -1169 -643 -157 -71 -575 -247 -610 -258 -19 -6
18 93 269 718 l292 724 50 -20 c28 -11 53 -22 55 -24z m604 -246 c108 -44 197
-84 197 -89 0 -4 -6 -9 -12 -11 -7 -2 -210 -103 -451 -225 -240 -123 -439
-223 -442 -223 -3 0 129 397 225 676 l21 62 132 -55 c73 -30 221 -91 330 -135z"/>
</g>
</svg>
