<?xml version="1.0" standalone="no"?>
<!DOCTYPE svg PUBLIC "-//W3C//DTD SVG 20010904//EN"
 "http://www.w3.org/TR/2001/REC-SVG-20010904/DTD/svg10.dtd">
<svg version="1.0" xmlns="http://www.w3.org/2000/svg"
 width="1280.000000pt" height="933.000000pt" viewBox="0 0 1280.000000 933.000000"
 preserveAspectRatio="xMidYMid meet">
<metadata>
Created by potrace 1.15, written by Peter Selinger 2001-2017
</metadata>
<g transform="translate(0.000000,933.000000) scale(0.100000,-0.100000)"
fill="#ffc107" stroke="none">
<path d="M3235 8693 c-135 -55 -261 -206 -226 -271 6 -12 25 -24 45 -27 l33
-7 -23 -25 c-36 -39 -49 -90 -48 -193 0 -71 6 -111 22 -157 29 -82 30 -190 1
-275 -48 -147 -156 -251 -369 -355 -188 -93 -379 -242 -640 -503 -342 -341
-575 -663 -798 -1101 -329 -647 -489 -1145 -547 -1699 -30 -287 -16 -525 50
-830 35 -164 128 -509 159 -590 106 -274 340 -633 546 -840 141 -141 240 -207
485 -323 274 -130 453 -178 765 -207 69 -6 134 -13 145 -15 22 -4 -149 3 -235
10 l-55 4 45 -9 c25 -6 63 -12 85 -15 22 -2 81 -11 130 -19 50 -8 124 -18 165
-22 109 -9 556 -11 695 -3 66 5 158 10 205 13 47 3 132 8 190 11 58 4 125 8
150 10 25 3 79 7 120 10 41 4 95 8 120 10 25 3 74 7 110 10 36 3 106 10 155
15 95 10 272 16 750 26 160 3 310 10 335 15 73 15 399 49 413 43 8 -3 27 1 43
7 31 13 302 20 310 8 8 -13 84 -21 97 -11 8 7 27 7 57 0 45 -10 92 -13 140 -8
14 2 63 -3 110 -10 47 -7 128 -14 180 -16 375 -14 390 -16 561 -74 101 -34
280 -55 265 -32 -10 16 3 15 87 -8 164 -46 704 -131 1142 -181 233 -26 204
-25 400 -16 290 13 542 60 733 136 316 126 448 200 613 343 92 80 244 265 346
423 25 39 58 84 74 102 29 34 129 235 181 363 16 41 33 80 38 85 5 6 11 28 15
50 4 22 24 101 45 175 120 424 158 664 145 910 -22 442 -78 741 -211 1138
-110 326 -299 765 -427 987 -222 389 -411 640 -686 916 -298 298 -392 373
-638 509 -140 77 -216 148 -262 241 -38 79 -51 170 -27 194 18 19 20 54 6 107
-8 28 -7 46 7 84 l18 48 78 19 c43 11 75 22 72 26 -4 3 -37 18 -73 32 l-67 27
-3 63 c-3 56 -7 68 -35 97 -18 18 -25 30 -15 27 44 -17 107 55 78 90 -6 8 -9
18 -6 24 3 5 -46 59 -110 119 l-116 109 -71 -5 c-40 -2 -83 -10 -97 -17 -14
-7 -52 -18 -85 -24 -131 -26 -258 -101 -354 -209 l-64 -72 -68 0 c-42 0 -69
-4 -69 -11 0 -5 11 -49 25 -97 22 -80 23 -92 11 -142 -10 -46 -19 -59 -54 -85
-23 -16 -51 -42 -62 -57 -72 -95 -511 -322 -870 -450 -103 -37 -307 -133 -393
-184 -69 -42 -603 -406 -682 -465 -27 -20 -84 -68 -125 -107 l-75 -70 -170
167 c-143 140 -207 193 -405 337 -316 230 -404 290 -545 371 -117 67 -147 80
-385 180 -187 77 -457 216 -571 292 -58 39 -143 106 -188 148 -81 77 -82 79
-101 158 -30 122 -88 230 -171 319 -92 99 -166 146 -282 180 -50 15 -110 36
-133 47 -50 23 -105 24 -159 2z m3140 -7061 c-3 -3 -11 0 -18 7 -9 10 -8 11 6
5 10 -3 15 -9 12 -12z m95 -37 c14 -8 21 -14 15 -14 -5 0 -21 6 -35 14 -14 8
-20 14 -15 14 6 0 21 -6 35 -14z m60 -25 c8 -5 11 -10 5 -10 -5 0 -17 5 -25
10 -8 5 -10 10 -5 10 6 0 17 -5 25 -10z m142 -50 c46 -16 78 -29 72 -29 -13
-1 -185 57 -193 65 -7 8 11 2 121 -36z m115 -36 c-3 -3 -12 -4 -19 -1 -8 3 -5
6 6 6 11 1 17 -2 13 -5z m115 -25 c51 -12 101 -28 110 -36 11 -10 24 -12 40
-7 13 4 28 6 33 4 6 -2 51 -3 100 -3 l90 1 -80 -8 c-44 -4 -89 -4 -100 0 -11
4 -30 3 -42 -3 -18 -8 -27 -6 -40 5 -10 9 -62 26 -115 38 -54 12 -98 24 -98
26 0 6 0 6 102 -17z m493 -60 c20 -5 9 -6 -30 -2 -33 3 -62 7 -64 9 -8 7 63 2
94 -7z m120 -24 c28 -7 41 -13 30 -13 -11 0 -42 6 -70 13 -27 7 -41 13 -30 13
11 0 43 -6 70 -13z m-4282 -92 c-7 -2 -21 -2 -30 0 -10 3 -4 5 12 5 17 0 24
-2 18 -5z m-100 -10 c-7 -2 -21 -2 -30 0 -10 3 -4 5 12 5 17 0 24 -2 18 -5z
m-160 -10 c-13 -2 -35 -2 -50 0 -16 2 -5 4 22 4 28 0 40 -2 28 -4z"/>
<path d="M2503 1293 c9 -2 23 -2 30 0 6 3 -1 5 -18 5 -16 0 -22 -2 -12 -5z"/>
</g>
</svg>
